<?xml version="1.0" standalone="no"?><!DOCTYPE svg PUBLIC "-//W3C//DTD SVG 1.1//EN" "http://www.w3.org/Graphics/SVG/1.1/DTD/svg11.dtd"><svg t="1635476543969" class="icon" viewBox="0 0 1024 1024" version="1.1" xmlns="http://www.w3.org/2000/svg" p-id="26511" xmlns:xlink="http://www.w3.org/1999/xlink" width="128" height="128"><defs><style type="text/css"></style></defs><path d="M485.504 640v165.504a64 64 0 0 1-109.248 45.248L146.752 621.248A64 64 0 0 1 192 512h101.504V256a64 64 0 0 1 64-64h64a64 64 0 0 1 64 64v384zM608 320h256a32 32 0 1 1 0 64h-256a32 32 0 0 1 0-64z m0 128h256a32 32 0 1 1 0 64h-256a32 32 0 0 1 0-64z m0 128h256a32 32 0 1 1 0 64h-256a32 32 0 0 1 0-64z m0 128h256a32 32 0 1 1 0 64h-256a32 32 0 1 1 0-64z" fill="#7A7E83" p-id="26512"></path></svg>