<?xml version="1.0" standalone="no"?><!DOCTYPE svg PUBLIC "-//W3C//DTD SVG 1.1//EN" "http://www.w3.org/Graphics/SVG/1.1/DTD/svg11.dtd"><svg t="1635405250894" class="icon" viewBox="0 0 1024 1024" version="1.1" xmlns="http://www.w3.org/2000/svg" p-id="23168" xmlns:xlink="http://www.w3.org/1999/xlink" width="128" height="128"><defs><style type="text/css"></style></defs><path d="M989 1006H35c-17.673 0-32-14.327-32-32s14.327-32 32-32h954c17.673 0 32 14.327 32 32s-14.327 32-32 32zM19 948l73-212 205 213z m131-283l202 209 444-443-204-205z m509-517l202 202 58-60s22-32 15-57S801 97 787 83s-41-12-71 13-57 52-57 52z" p-id="23169" fill="#7A7E83"></path></svg>